<?xml version="1.0" standalone="no"?>
<!DOCTYPE svg PUBLIC "-//W3C//DTD SVG 1.1//EN" "http://www.w3.org/Graphics/SVG/1.1/DTD/svg11.dtd">
<svg width="205" height="31" viewBox="-107 -16 205 31" xmlns="http://www.w3.org/2000/svg" version="1.1">
<title>OpenSCAD Model</title>
<path d="
M -106.87,14.5625 L -100.868,14.5625 L -100.868,2.24649 L -88.3842,2.24649 L -88.3842,14.5625 L -82.3832,14.5625
 L -82.3832,-14.1095 L -88.3842,-14.1095 L -88.3842,-2.7175 L -100.868,-2.7175 L -100.868,-14.1095 L -106.87,-14.1095
 z
M -79.0534,8.3335 L -79.0313,9.01477 L -78.965,9.66124 L -78.8545,10.2729 L -78.6998,10.8498 L -78.501,11.392
 L -78.2579,11.8993 L -77.9706,12.3718 L -77.6391,12.8095 L -77.2634,13.2125 L -76.8483,13.5764 L -76.3985,13.8975
 L -75.9141,14.1758 L -75.395,14.4113 L -74.8412,14.604 L -74.2528,14.7538 L -73.6297,14.8609 L -72.9719,14.9251
 L -72.2794,14.9465 L -71.2338,14.893 L -70.2484,14.7325 L -69.3233,14.465 L -68.4585,14.0906 L -67.6539,13.6091
 L -66.9097,13.0207 L -66.2256,12.3253 L -65.6019,11.5229 L -65.0384,10.6135 L -64.9164,10.6135 L -64.8611,11.0576
 L -64.7855,11.4772 L -64.6895,11.8722 L -64.5732,12.2425 L -64.4366,12.5883 L -64.2795,12.9095 L -64.1022,13.2061
 L -63.9045,13.4781 L -63.6864,13.7255 L -63.4441,13.9475 L -63.1738,14.1435 L -62.8758,14.3133 L -62.5498,14.457
 L -62.1961,14.5745 L -61.8144,14.6659 L -61.405,14.7312 L -60.9676,14.7704 L -60.5024,14.7835 L -60.2388,14.7815
 L -59.9902,14.7754 L -59.7567,14.7653 L -59.5381,14.7511 L -59.1348,14.7135 L -58.7528,14.6676 L -58.479,14.6274
 L -58.2079,14.5792 L -57.9369,14.5218 L -56.8404,14.2545 L -56.8404,11.1635 L -56.9765,11.1891 L -57.1136,11.2117
 L -57.2516,11.2313 L -57.3907,11.2478 L -57.5309,11.2614 L -57.672,11.2719 L -57.8141,11.2795 L -57.9573,11.284
 L -58.1014,11.2855 L -58.3116,11.2769 L -58.508,11.2509 L -58.6905,11.2077 L -58.8593,11.1472 L -59.0141,11.0694
 L -59.1552,10.9744 L -59.2824,10.862 L -59.3958,10.7324 L -59.4954,10.5855 L -59.5829,10.4156 L -59.6602,10.2173
 L -59.7271,9.99083 L -59.7837,9.73601 L -59.8301,9.4529 L -59.8661,9.14149 L -59.8918,8.80179 L -59.9073,8.43379
 L -59.9124,8.03749 L -59.9124,0.0394897 L -59.9403,-0.77829 L -60.0239,-1.55348 L -60.1633,-2.28604 L -60.3585,-2.976
 L -60.6093,-3.62334 L -60.916,-4.22804 L -61.2784,-4.79015 L -61.6965,-5.30963 L -62.1704,-5.7865 L -62.6958,-6.21695
 L -63.2684,-6.59677 L -63.8882,-6.92593 L -64.5552,-7.20447 L -65.2694,-7.43236 L -66.0309,-7.6096 L -66.8395,-7.73621
 L -67.6954,-7.81216 L -68.5984,-7.83749 L -69.4945,-7.81702 L -70.3477,-7.75562 L -71.1579,-7.65327 L -71.9251,-7.50998
 L -72.6495,-7.32576 L -73.3309,-7.1006 L -73.9693,-6.8345 L -74.5648,-6.52747 L -75.1174,-6.17949 L -75.6258,-5.79184
 L -76.0887,-5.36577 L -76.5062,-4.90128 L -76.8782,-4.39836 L -77.2048,-3.85703 L -77.4859,-3.27727 L -77.7215,-2.6591
 L -77.9117,-2.0025 L -78.0564,-1.3075 L -72.0954,-1.02249 L -72.0479,-1.38148 L -71.9865,-1.7171 L -71.9113,-2.02939
 L -71.8223,-2.3183 L -71.7196,-2.58385 L -71.603,-2.82605 L -71.4726,-3.04489 L -71.3284,-3.24037 L -71.1704,-3.41249
 L -70.9949,-3.56403 L -70.7986,-3.69772 L -70.5814,-3.8136 L -70.3435,-3.91165 L -70.0847,-3.99188 L -69.8051,-4.05428
 L -69.5047,-4.09883 L -69.1835,-4.12558 L -68.8414,-4.13449 L -68.4737,-4.12157 L -68.1295,-4.08279 L -67.809,-4.01816
 L -67.5121,-3.92767 L -67.2387,-3.81134 L -66.989,-3.66916 L -66.7629,-3.50113 L -66.5603,-3.30724 L -66.3814,-3.08749
 L -66.2234,-2.84114 L -66.084,-2.56744 L -65.9631,-2.26639 L -65.8608,-1.93796 L -65.7772,-1.58218 L -65.7121,-1.19905
 L -65.6656,-0.788559 L -65.6377,-0.350708 L -65.6284,0.114487 L -65.6284,1.23349 L -70.3674,1.3145 L -71.2829,1.34514
 L -72.149,1.41884 L -72.9655,1.5356 L -73.7327,1.69543 L -74.4503,1.89832 L -75.1185,2.14427 L -75.7373,2.43329
 L -76.3066,2.76535 L -76.8264,3.14049 L -77.2938,3.55719 L -77.7062,4.01398 L -78.0637,4.51082 L -78.3661,5.04774
 L -78.6135,5.62476 L -78.806,6.24182 L -78.9435,6.89897 L -79.0259,7.59619 z
M -73.0934,7.8855 L -73.088,7.62192 L -73.0719,7.37033 L -73.0449,7.13072 L -73.0071,6.90308 L -72.9586,6.68741
 L -72.8992,6.48372 L -72.8291,6.29199 L -72.7481,6.11226 L -72.6564,5.94449 L -72.5542,5.78734 L -72.4422,5.6394
 L -72.3204,5.50072 L -72.1889,5.37126 L -72.0475,5.25104 L -71.8964,5.14005 L -71.7355,5.0383 L -71.5649,4.94577
 L -71.3844,4.86249 L -71.1848,4.7872 L -70.9565,4.71864 L -70.6996,4.65683 L -70.4142,4.60175 L -70.1001,4.55342
 L -69.7573,4.51183 L -69.386,4.47697 L -68.986,4.44887 L -68.5574,4.42749 L -65.6284,4.3875 L -65.6284,5.4995
 L -65.6362,5.81673 L -65.6596,6.1302 L -65.6985,6.43994 L -65.7531,6.74591 L -65.8232,7.04814 L -65.9089,7.3466
 L -66.0101,7.64133 L -66.127,7.93228 L -66.2594,8.2195 L -66.4053,8.49796 L -66.5631,8.7627 L -66.7327,9.01372
 L -66.914,9.25099 L -67.1073,9.47455 L -67.3123,9.68439 L -67.5292,9.88048 L -67.7579,10.0629 L -67.9984,10.2315
 L -68.2476,10.3843 L -68.5025,10.5191 L -68.7632,10.6359 L -69.0297,10.7348 L -69.3021,10.8157 L -69.5802,10.8786
 L -69.8642,10.9235 L -70.1539,10.9505 L -70.4494,10.9595 L -70.7102,10.9501 L -70.9592,10.9221 L -71.1963,10.8753
 L -71.4217,10.8098 L -71.6352,10.7255 L -71.837,10.6226 L -72.0269,10.5009 L -72.2051,10.3606 L -72.3714,10.2015
 L -72.523,10.023 L -72.6567,9.82475 L -72.7725,9.60683 L -72.8706,9.3692 L -72.9508,9.11186 L -73.0132,8.83482
 L -73.0578,8.53809 L -73.0845,8.22163 z
M -54.8955,-7.45349 L -54.8433,-6.61151 L -54.795,-5.6767 L -54.7728,-5.16969 L -54.7552,-4.6046 L -54.7426,-3.97621
 L -54.735,-3.2845 L -54.7325,-2.5295 L -54.7325,14.5625 L -49.0155,14.5625 L -49.0155,2.7475 L -48.9998,2.13972
 L -48.9526,1.55687 L -48.874,0.998932 L -48.7639,0.465912 L -48.6223,-0.0421906 L -48.4493,-0.525375 L -48.2448,-0.983658
 L -48.0089,-1.41704 L -47.7415,-1.82549 L -47.4485,-2.19971 L -47.1355,-2.52989 L -46.8027,-2.81606 L -46.4501,-3.05818
 L -46.0775,-3.2563 L -45.6851,-3.41039 L -45.2728,-3.52045 L -44.8406,-3.58649 L -44.3885,-3.60849 L -43.5629,-3.53682
 L -42.8344,-3.32178 L -42.203,-2.96338 L -41.6687,-2.46162 L -41.2316,-1.81651 L -40.8916,-1.02805 L -40.6488,-0.0962219
 L -40.5031,0.978943 L -40.4545,2.19749 L -40.4545,14.5625 L -34.7585,14.5625 L -34.7585,0.570496 L -34.7817,-0.327972
 L -34.8511,-1.1772 L -34.9668,-1.97716 L -35.1287,-2.72786 L -35.3369,-3.42931 L -35.5914,-4.0815 L -35.8922,-4.68442
 L -36.2392,-5.23808 L -36.6325,-5.74249 L -37.0691,-6.19562 L -37.5459,-6.59543 L -38.0629,-6.94194 L -38.6201,-7.23514
 L -39.2175,-7.47502 L -39.8552,-7.66161 L -40.5331,-7.79488 L -41.2512,-7.87483 L -42.0095,-7.90149 L -42.5397,-7.88744
 L -43.0533,-7.84525 L -43.5503,-7.77493 L -44.0308,-7.6765 L -44.4946,-7.54994 L -44.942,-7.39526 L -45.3727,-7.21246
 L -45.7869,-7.00154 L -46.1845,-6.7625 L -46.5666,-6.49229 L -46.934,-6.18793 L -47.2868,-5.84938 L -47.6251,-5.47667
 L -47.9488,-5.06978 L -48.2579,-4.62871 L -48.5523,-4.15347 L -48.8322,-3.64407 L -49.0975,-3.10049 L -49.1785,-3.10049
 L -49.1798,-3.25291 L -49.1898,-3.63493 L -49.21,-4.11987 L -49.2402,-4.70773 L -49.3025,-5.75374 L -49.3434,-6.36905
 L -49.3804,-6.85744 L -49.4134,-7.21892 L -49.4285,-7.35207 L -49.4425,-7.45349 z
M -31.081,3.57449 L -31.0551,4.74103 L -30.9774,5.84862 L -30.8479,6.89726 L -30.6666,7.88699 L -30.4335,8.81776
 L -30.1486,9.68961 L -29.8118,10.5025 L -29.4233,11.2565 L -28.983,11.9515 L -28.4952,12.5801 L -27.9641,13.1347
 L -27.3898,13.6154 L -26.7722,14.0221 L -26.1115,14.3549 L -25.4075,14.6137 L -24.6602,14.7986 L -23.8697,14.9095
 L -23.036,14.9465 L -21.923,14.8973 L -20.8925,14.7496 L -19.9445,14.5034 L -19.0789,14.1587 L -18.2958,13.7156
 L -17.5951,13.174 L -16.9769,12.534 L -16.4412,11.7955 L -15.988,10.9585 L -15.907,10.9585 L -15.9056,11.1457
 L -15.9015,11.3432 L -15.8946,11.5512 L -15.8849,11.7695 L -15.8724,11.9981 L -15.8572,12.2372 L -15.8185,12.7463
 L -15.7705,13.2803 L -15.7238,13.7389 L -15.6801,14.1055 L -15.6595,14.2543 L -15.6395,14.38 L -15.6204,14.4828
 L -15.602,14.5625 L -10.068,14.5625 L -10.1022,13.9564 L -10.1324,13.3684 L -10.1586,12.7985 L -10.1807,12.2466
 L -10.1988,11.7129 L -10.2129,11.1972 L -10.223,10.6995 L -10.229,10.22 L -10.231,9.7585 L -10.231,-15.6455
 L -15.948,-15.6455 L -15.948,-7.58449 L -15.907,-3.95149 L -15.948,-3.95149 L -16.1615,-4.36923 L -16.3943,-4.76335
 L -16.6465,-5.13382 L -16.918,-5.48068 L -17.2089,-5.80389 L -17.5191,-6.10349 L -17.8487,-6.37946 L -18.1977,-6.63179
 L -18.566,-6.86049 L -18.9517,-7.06554 L -19.3533,-7.24648 L -19.7707,-7.40327 L -20.2039,-7.53595 L -20.653,-7.6445
 L -21.118,-7.72894 L -21.5988,-7.78925 L -22.0955,-7.82542 L -22.608,-7.83749 L -23.4859,-7.80077 L -24.3183,-7.69058
 L -25.1052,-7.50694 L -25.8466,-7.24983 L -26.5425,-6.91928 L -27.1929,-6.51527 L -27.7978,-6.0378 L -28.3571,-5.48688
 L -28.871,-4.86249 L -29.3348,-4.17068 L -29.7441,-3.41745 L -30.0988,-2.60283 L -30.3989,-1.72679 L -30.6445,-0.789337
 L -30.8354,0.209488 L -30.9719,1.26974 L -31.0537,2.39142 z
M -25.12,3.57449 L -25.1062,2.75111 L -25.0647,1.97607 L -24.9955,1.24937 L -24.8986,0.57103 L -24.774,-0.0589447
 L -24.6218,-0.64061 L -24.4419,-1.17392 L -24.2343,-1.65887 L -23.999,-2.09549 L -23.7353,-2.48502 L -23.4424,-2.82872
 L -23.1203,-3.1266 L -22.7691,-3.37865 L -22.3886,-3.58487 L -21.979,-3.74527 L -21.5402,-3.85983 L -21.0722,-3.92857
 L -20.575,-3.95149 L -20.0725,-3.92783 L -19.598,-3.85683 L -19.1515,-3.73849 L -18.7328,-3.57283 L -18.3422,-3.35983
 L -17.9794,-3.09949 L -17.6447,-2.79182 L -17.3379,-2.43683 L -17.059,-2.03448 L -16.8086,-1.58833 L -16.5877,-1.10185
 L -16.3962,-0.575043 L -16.2342,-0.00791931 L -16.1017,0.599503 L -15.9986,1.24727 L -15.9249,1.93536 L -15.8807,2.66376
 L -15.866,3.4325 L -15.8814,4.22339 L -15.9274,4.97293 L -16.0042,5.68115 L -16.1117,6.34805 L -16.25,6.9736
 L -16.4189,7.55783 L -16.6185,8.10071 L -16.8489,8.60226 L -17.11,9.0625 L -17.3988,9.47763 L -17.7128,9.84392
 L -18.0519,10.1614 L -18.4162,10.43 L -18.8056,10.6498 L -19.2202,10.8207 L -19.66,10.9428 L -20.1249,11.0161
 L -20.615,11.0405 L -21.5605,10.9483 L -22.3948,10.6718 L -23.1178,10.2109 L -23.7296,9.56572 L -24.2301,8.73618
 L -24.6194,7.72227 L -24.8975,6.52402 L -25.0644,5.14143 z
M -5.19049,-7.45349 L -5.13824,-6.61151 L -5.08995,-5.6767 L -5.06779,-5.16969 L -5.05016,-4.6046 L -5.03757,-3.97621
 L -5.03001,-3.2845 L -5.0275,-2.5295 L -5.0275,14.5625 L 0.689499,14.5625 L 0.689499,2.7475 L 0.702942,2.13565
 L 0.743271,1.54947 L 0.810486,0.988937 L 0.904602,0.454056 L 1.0256,-0.0551453 L 1.17349,-0.538712 L 1.34827,-0.996628
 L 1.54994,-1.42889 L 1.77849,-1.83549 L 2.02841,-2.20761 L 2.29414,-2.53593 L 2.57571,-2.8205 L 2.87311,-3.06126
 L 3.18633,-3.25827 L 3.51538,-3.4115 L 3.86026,-3.52094 L 4.22096,-3.58661 L 4.59749,-3.60849 L 5.29807,-3.53682
 L 5.91621,-3.32178 L 6.45193,-2.96338 L 6.90524,-2.46162 L 7.27614,-1.81651 L 7.56461,-1.02805 L 7.77066,-0.0962219
 L 7.89429,0.978943 L 7.93549,2.19749 L 7.93549,14.5625 L 13.6115,14.5625 L 13.6115,2.4825 L 13.6461,1.86394
 L 13.7045,1.27583 L 13.7868,0.718155 L 13.893,0.190933 L 14.023,-0.305832 L 14.1768,-0.772156 L 14.3545,-1.20805
 L 14.5561,-1.61349 L 14.7815,-1.98849 L 15.0265,-2.32849 L 15.2862,-2.62849 L 15.5608,-2.88849 L 15.8502,-3.10849
 L 16.1544,-3.2885 L 16.4735,-3.4285 L 16.8073,-3.52849 L 17.156,-3.58849 L 17.5195,-3.60849 L 18.2203,-3.53682
 L 18.8386,-3.32178 L 19.3745,-2.96338 L 19.8279,-2.46162 L 20.1989,-1.81651 L 20.4875,-1.02805 L 20.6936,-0.0962219
 L 20.8173,0.978943 L 20.8585,2.19749 L 20.8585,14.5625 L 26.5345,14.5625 L 26.5345,0.570496 L 26.5136,-0.315536
 L 26.4511,-1.15457 L 26.3468,-1.94661 L 26.2009,-2.69162 L 26.0132,-3.38962 L 25.7838,-4.0406 L 25.5128,-4.64458
 L 25.2,-5.20154 L 24.8455,-5.71149 L 24.4513,-6.17113 L 24.0194,-6.57668 L 23.5498,-6.92816 L 23.0425,-7.22557
 L 22.4975,-7.4689 L 21.9148,-7.65816 L 21.2944,-7.79335 L 20.6363,-7.87445 L 19.9405,-7.90149 L 19.4128,-7.88768
 L 18.9063,-7.84624 L 18.4208,-7.77716 L 17.9565,-7.68045 L 17.5133,-7.55612 L 17.0912,-7.40416 L 16.6902,-7.22456
 L 16.3103,-7.01735 L 15.9515,-6.78249 L 15.6088,-6.51599 L 15.2772,-6.21385 L 14.9566,-5.87605 L 14.6471,-5.50259
 L 14.3486,-5.09348 L 14.0613,-4.64871 L 13.7849,-4.16829 L 13.5197,-3.65222 L 13.2655,-3.10049 L 13.1435,-3.10049
 L 12.8547,-4.10811 L 12.468,-4.99718 L 11.9834,-5.76772 L 11.4008,-6.41971 L 10.7202,-6.95314 L 9.94171,-7.36804
 L 9.06526,-7.66441 L 8.09085,-7.84222 L 7.01849,-7.90149 L 6.53772,-7.88744 L 6.07227,-7.84525 L 5.62216,-7.77493
 L 5.18738,-7.6765 L 4.76794,-7.54994 L 4.36383,-7.39526 L 3.97505,-7.21246 L 3.60161,-7.00154 L 3.2435,-6.7625
 L 2.89944,-6.49229 L 2.56818,-6.18793 L 2.24971,-5.84938 L 1.94403,-5.47667 L 1.65115,-5.06978 L 1.37105,-4.62871
 L 1.10374,-4.15347 L 0.849228,-3.64407 L 0.607498,-3.10049 L 0.526489,-3.10049 L 0.525238,-3.25291 L 0.515152,-3.63493
 L 0.49501,-4.11987 L 0.464783,-4.70773 L 0.402542,-5.75374 L 0.361603,-6.36905 L 0.324615,-6.85744 L 0.29158,-7.21892
 L 0.276535,-7.35207 L 0.262497,-7.45349 z
M 29.4602,8.3335 L 29.4823,9.01477 L 29.5486,9.66124 L 29.6591,10.2729 L 29.8138,10.8498 L 30.0127,11.392
 L 30.2558,11.8993 L 30.5431,12.3718 L 30.8745,12.8095 L 31.2502,13.2125 L 31.6653,13.5764 L 32.1151,13.8975
 L 32.5996,14.1758 L 33.1187,14.4113 L 33.6725,14.604 L 34.2609,14.7538 L 34.884,14.8609 L 35.5418,14.9251
 L 36.2342,14.9465 L 37.2799,14.893 L 38.2652,14.7325 L 39.1903,14.465 L 40.0552,14.0906 L 40.8597,13.6091
 L 41.604,13.0207 L 42.288,12.3253 L 42.9118,11.5229 L 43.4752,10.6135 L 43.5972,10.6135 L 43.6525,11.0576
 L 43.7281,11.4772 L 43.8241,11.8722 L 43.9404,12.2425 L 44.0771,12.5883 L 44.2341,12.9095 L 44.4115,13.2061
 L 44.6092,13.4781 L 44.8272,13.7255 L 45.0696,13.9475 L 45.3398,14.1435 L 45.6379,14.3133 L 45.9638,14.457
 L 46.3176,14.5745 L 46.6992,14.6659 L 47.1087,14.7312 L 47.546,14.7704 L 48.0112,14.7835 L 48.2748,14.7815
 L 48.5234,14.7754 L 48.757,14.7653 L 48.9756,14.7511 L 49.3789,14.7135 L 49.7608,14.6676 L 50.0347,14.6274
 L 50.3058,14.5792 L 50.5767,14.5218 L 51.6732,14.2545 L 51.6732,11.1635 L 51.5372,11.1891 L 51.4001,11.2117
 L 51.262,11.2313 L 51.1229,11.2478 L 50.9828,11.2614 L 50.8417,11.2719 L 50.6995,11.2795 L 50.5564,11.284
 L 50.4122,11.2855 L 50.202,11.2769 L 50.0057,11.2509 L 49.8231,11.2077 L 49.6544,11.1472 L 49.4995,11.0694
 L 49.3584,10.9744 L 49.2312,10.862 L 49.1178,10.7324 L 49.0182,10.5855 L 48.9307,10.4156 L 48.8535,10.2173
 L 48.7866,9.99083 L 48.7299,9.73601 L 48.6836,9.4529 L 48.6476,9.14149 L 48.6218,8.80179 L 48.6064,8.43379
 L 48.6012,8.03749 L 48.6012,0.0394897 L 48.5733,-0.77829 L 48.4897,-1.55348 L 48.3503,-2.28604 L 48.1552,-2.976
 L 47.9043,-3.62334 L 47.5977,-4.22804 L 47.2353,-4.79015 L 46.8171,-5.30963 L 46.3432,-5.7865 L 45.8178,-6.21695
 L 45.2453,-6.59677 L 44.6254,-6.92593 L 43.9584,-7.20447 L 43.2442,-7.43236 L 42.4828,-7.6096 L 41.6741,-7.73621
 L 40.8183,-7.81216 L 39.9152,-7.83749 L 39.0191,-7.81702 L 38.166,-7.75562 L 37.3558,-7.65327 L 36.5885,-7.50998
 L 35.8642,-7.32576 L 35.1828,-7.1006 L 34.5443,-6.8345 L 33.9488,-6.52747 L 33.3962,-6.17949 L 32.8878,-5.79184
 L 32.4249,-5.36577 L 32.0074,-4.90128 L 31.6354,-4.39836 L 31.3089,-3.85703 L 31.0278,-3.27727 L 30.7921,-2.6591
 L 30.602,-2.0025 L 30.4572,-1.3075 L 36.4182,-1.02249 L 36.4658,-1.38148 L 36.5272,-1.7171 L 36.6023,-2.02939
 L 36.6913,-2.3183 L 36.7941,-2.58385 L 36.9107,-2.82605 L 37.0411,-3.04489 L 37.1852,-3.24037 L 37.3432,-3.41249
 L 37.5187,-3.56403 L 37.7151,-3.69772 L 37.9322,-3.8136 L 38.1702,-3.91165 L 38.429,-3.99188 L 38.7086,-4.05428
 L 39.009,-4.09883 L 39.3302,-4.12558 L 39.6722,-4.13449 L 40.04,-4.12157 L 40.3841,-4.08279 L 40.7047,-4.01816
 L 41.0016,-3.92767 L 41.2749,-3.81134 L 41.5247,-3.66916 L 41.7508,-3.50113 L 41.9533,-3.30724 L 42.1322,-3.08749
 L 42.2903,-2.84114 L 42.4297,-2.56744 L 42.5506,-2.26639 L 42.6528,-1.93796 L 42.7365,-1.58218 L 42.8016,-1.19905
 L 42.848,-0.788559 L 42.8759,-0.350708 L 42.8852,0.114487 L 42.8852,1.23349 L 38.1462,1.3145 L 37.2307,1.34514
 L 36.3647,1.41884 L 35.5481,1.5356 L 34.781,1.69543 L 34.0633,1.89832 L 33.3951,2.14427 L 32.7764,2.43329
 L 32.2071,2.76535 L 31.6872,3.14049 L 31.2198,3.55719 L 30.8074,4.01398 L 30.45,4.51082 L 30.1476,5.04774
 L 29.9001,5.62476 L 29.7077,6.24182 L 29.5702,6.89897 L 29.4877,7.59619 z
M 35.4202,7.8855 L 35.4256,7.62192 L 35.4418,7.37033 L 35.4688,7.13072 L 35.5065,6.90308 L 35.5551,6.68741
 L 35.6145,6.48372 L 35.6846,6.29199 L 35.7655,6.11226 L 35.8572,5.94449 L 35.9594,5.78734 L 36.0714,5.6394
 L 36.1932,5.50072 L 36.3248,5.37126 L 36.4661,5.25104 L 36.6172,5.14005 L 36.7781,5.0383 L 36.9488,4.94577
 L 37.1292,4.86249 L 37.3289,4.7872 L 37.5571,4.71864 L 37.814,4.65683 L 38.0995,4.60175 L 38.4136,4.55342
 L 38.7563,4.51183 L 39.1277,4.47697 L 39.5276,4.44887 L 39.9562,4.42749 L 42.8852,4.3875 L 42.8852,5.4995
 L 42.8774,5.81673 L 42.8541,6.1302 L 42.8151,6.43994 L 42.7606,6.74591 L 42.6905,7.04814 L 42.6048,7.3466
 L 42.5035,7.64133 L 42.3867,7.93228 L 42.2542,8.2195 L 42.1083,8.49796 L 41.9506,8.7627 L 41.781,9.01372
 L 41.5996,9.25099 L 41.4064,9.47455 L 41.2013,9.68439 L 40.9845,9.88048 L 40.7558,10.0629 L 40.5152,10.2315
 L 40.2661,10.3843 L 40.0112,10.5191 L 39.7504,10.6359 L 39.4839,10.7348 L 39.2116,10.8157 L 38.9335,10.8786
 L 38.6495,10.9235 L 38.3598,10.9505 L 38.0642,10.9595 L 37.8035,10.9501 L 37.5545,10.9221 L 37.3173,10.8753
 L 37.092,10.8098 L 36.8784,10.7255 L 36.6767,10.6226 L 36.4867,10.5009 L 36.3086,10.3606 L 36.1422,10.2015
 L 35.9907,10.023 L 35.857,9.82475 L 35.7411,9.60683 L 35.6431,9.3692 L 35.5629,9.11186 L 35.5004,8.83482
 L 35.4559,8.53809 L 35.4291,8.22163 z
M 52.5791,3.57449 L 52.605,4.74103 L 52.6827,5.84862 L 52.8122,6.89726 L 52.9935,7.88699 L 53.2267,8.81776
 L 53.5116,9.68961 L 53.8483,10.5025 L 54.2368,11.2565 L 54.6771,11.9515 L 55.165,12.5801 L 55.696,13.1347
 L 56.2704,13.6154 L 56.8879,14.0221 L 57.5487,14.3549 L 58.2527,14.6137 L 58.9999,14.7986 L 59.7904,14.9095
 L 60.6241,14.9465 L 61.7371,14.8973 L 62.7676,14.7496 L 63.7157,14.5034 L 64.5813,14.1587 L 65.3644,13.7156
 L 66.065,13.174 L 66.6832,12.534 L 67.2189,11.7955 L 67.6721,10.9585 L 67.7531,10.9585 L 67.7545,11.1457
 L 67.7587,11.3432 L 67.7656,11.5512 L 67.7753,11.7695 L 67.7877,11.9981 L 67.8029,12.2372 L 67.8416,12.7463
 L 67.8896,13.2803 L 67.9364,13.7389 L 67.98,14.1055 L 68.0007,14.2543 L 68.0206,14.38 L 68.0397,14.4828
 L 68.0581,14.5625 L 73.5921,14.5625 L 73.5579,13.9564 L 73.5277,13.3684 L 73.5016,12.7985 L 73.4794,12.2466
 L 73.4613,11.7129 L 73.4473,11.1972 L 73.4372,10.6995 L 73.4312,10.22 L 73.4291,9.7585 L 73.4291,-15.6455
 L 67.7121,-15.6455 L 67.7121,-7.58449 L 67.7531,-3.95149 L 67.7121,-3.95149 L 67.4987,-4.36923 L 67.2659,-4.76335
 L 67.0137,-5.13382 L 66.7422,-5.48068 L 66.4513,-5.80389 L 66.141,-6.10349 L 65.8114,-6.37946 L 65.4624,-6.63179
 L 65.0941,-6.86049 L 64.7084,-7.06554 L 64.3069,-7.24648 L 63.8895,-7.40327 L 63.4562,-7.53595 L 63.0071,-7.6445
 L 62.5421,-7.72894 L 62.0613,-7.78925 L 61.5647,-7.82542 L 61.0521,-7.83749 L 60.1742,-7.80077 L 59.3418,-7.69058
 L 58.5549,-7.50694 L 57.8135,-7.24983 L 57.1176,-6.91928 L 56.4672,-6.51527 L 55.8624,-6.0378 L 55.303,-5.48688
 L 54.7891,-4.86249 L 54.3253,-4.17068 L 53.916,-3.41745 L 53.5614,-2.60283 L 53.2612,-1.72679 L 53.0157,-0.789337
 L 52.8247,0.209488 L 52.6883,1.26974 L 52.6064,2.39142 z
M 58.5401,3.57449 L 58.554,2.75111 L 58.5955,1.97607 L 58.6647,1.24937 L 58.7616,0.57103 L 58.8861,-0.0589447
 L 59.0384,-0.64061 L 59.2183,-1.17392 L 59.4259,-1.65887 L 59.6611,-2.09549 L 59.9248,-2.48502 L 60.2177,-2.82872
 L 60.5398,-3.1266 L 60.8911,-3.37865 L 61.2715,-3.58487 L 61.6811,-3.74527 L 62.1199,-3.85983 L 62.588,-3.92857
 L 63.0851,-3.95149 L 63.5876,-3.92783 L 64.0621,-3.85683 L 64.5087,-3.73849 L 64.9273,-3.57283 L 65.318,-3.35983
 L 65.6807,-3.09949 L 66.0155,-2.79182 L 66.3223,-2.43683 L 66.6011,-2.03448 L 66.8515,-1.58833 L 67.0724,-1.10185
 L 67.2639,-0.575043 L 67.4259,-0.00791931 L 67.5585,0.599503 L 67.6616,1.24727 L 67.7352,1.93536 L 67.7794,2.66376
 L 67.7941,3.4325 L 67.7788,4.22339 L 67.7327,4.97293 L 67.6559,5.68115 L 67.5484,6.34805 L 67.4102,6.9736
 L 67.2412,7.55783 L 67.0416,8.10071 L 66.8112,8.60226 L 66.5501,9.0625 L 66.2613,9.47763 L 65.9474,9.84392
 L 65.6082,10.1614 L 65.244,10.43 L 64.8545,10.6498 L 64.4399,10.8207 L 64.0002,10.9428 L 63.5352,11.0161
 L 63.0451,11.0405 L 62.0996,10.9483 L 61.2654,10.6718 L 60.5424,10.2109 L 59.9306,9.56572 L 59.43,8.73618
 L 59.0407,7.72227 L 58.7626,6.52402 L 58.5957,5.14143 z
M 77.3497,3.4525 L 77.3825,4.66928 L 77.4812,5.81966 L 77.6456,6.90361 L 77.8759,7.92113 L 78.1719,8.87224
 L 78.5336,9.75694 L 78.9612,10.5752 L 79.4545,11.3271 L 80.0136,12.0125 L 80.6342,12.6283 L 81.3116,13.1716
 L 82.0458,13.6425 L 82.8367,14.0409 L 83.6843,14.3669 L 84.5888,14.6205 L 85.55,14.8016 L 86.5679,14.9103
 L 87.6427,14.9465 L 89.1742,14.8725 L 90.5868,14.6504 L 91.8803,14.2804 L 93.0548,13.7623 L 94.1102,13.0962
 L 95.0466,12.282 L 95.864,11.3199 L 96.5623,10.2097 L 97.1416,8.95149 L 91.7507,8.4825 L 91.5468,9.03636
 L 91.2877,9.52505 L 90.9733,9.94861 L 90.6037,10.307 L 90.1788,10.6002 L 89.6987,10.8283 L 89.1632,10.9912
 L 88.5726,11.0889 L 87.9267,11.1215 L 87.4511,11.1013 L 87.0003,11.0408 L 86.5744,10.9398 L 86.1734,10.7985
 L 85.7971,10.6169 L 85.4458,10.3948 L 85.1192,10.1324 L 84.8175,9.82964 L 84.5406,9.4865 L 84.2909,9.10349
 L 84.0705,8.68161 L 83.8795,8.22083 L 83.7179,7.72116 L 83.5857,7.1826 L 83.4829,6.60516 L 83.4094,5.98883
 L 83.3653,5.3336 L 83.3506,4.6395 L 97.4666,4.6395 L 97.4666,4.47749 L 97.4358,3.16989 L 97.3431,1.93419
 L 97.1886,0.770386 L 96.9724,-0.321503 L 96.6944,-1.34151 L 96.3546,-2.2896 L 95.9531,-3.1658 L 95.4898,-3.97009
 L 94.9646,-4.7025 L 94.381,-5.36046 L 93.7422,-5.94101 L 93.0481,-6.44415 L 92.2988,-6.8699 L 91.4942,-7.21823
 L 90.6344,-7.48917 L 89.7194,-7.68268 L 88.7491,-7.79878 L 87.7236,-7.83749 L 86.6486,-7.80139 L 85.6293,-7.6931
 L 84.6658,-7.5126 L 83.7579,-7.25992 L 82.9058,-6.93503 L 82.1094,-6.53793 L 81.3688,-6.06865 L 80.6839,-5.52718
 L 80.0546,-4.9135 L 79.4869,-4.23264 L 78.986,-3.48959 L 78.5519,-2.68439 L 78.1845,-1.817 L 77.884,-0.887436
 L 77.6502,0.104263 L 77.4832,1.15817 L 77.383,2.27425 z
M 83.3916,1.05849 L 83.4179,0.515335 L 83.4695,-0.000350952 L 83.5464,-0.488602 L 83.6487,-0.949387 L 83.7764,-1.38272
 L 83.9294,-1.7886 L 84.1078,-2.16702 L 84.3116,-2.51799 L 84.5406,-2.84149 L 84.7939,-3.13428 L 85.0699,-3.39261
 L 85.3689,-3.61649 L 85.6907,-3.80594 L 86.0353,-3.96094 L 86.4029,-4.0815 L 86.7933,-4.1676 L 87.2065,-4.21927
 L 87.6427,-4.2365 L 88.0533,-4.22015 L 88.4449,-4.17111 L 88.8174,-4.08939 L 89.1709,-3.97496 L 89.5052,-3.82785
 L 89.8204,-3.64804 L 90.1166,-3.43555 L 90.3937,-3.19037 L 90.6516,-2.91249 L 90.8885,-2.60213 L 91.1018,-2.25906
 L 91.2914,-1.88327 L 91.4575,-1.47476 L 91.5999,-1.03354 L 91.7188,-0.559601 L 91.814,-0.052948 L 91.8856,0.486404
 L 91.9337,1.05849 z
" stroke="black" fill="lightgray" stroke-width="0.5"/></svg>
